<?xml version="1.0" encoding="UTF-8"?><svg id="Layer_1" xmlns="http://www.w3.org/2000/svg" viewBox="0 0 1143.806822 1803.225806"><defs><style>.cls-1{fill:#fff;stroke-width:0px;}</style></defs><polygon class="cls-1" points="323.396636 834.995049 567.245633 734.349111 720.351316 793.427664 720.351316 478.453188 567.245633 413.732014 323.396636 518.587527 323.396636 419.527423 567.245633 320.617097 1134.491266 550.704632 1134.491266 234.297109 567.245633 0 0 234.297109 0 550.704632 0 1388.859308 323.396636 1250.788573 323.396636 834.995049"/><polygon class="cls-1" points="1143.806822 638.224344 820.410187 507.047136 820.410187 924.364777 567.245633 819.796777 414.139951 884.517951 414.139951 1199.492427 567.245633 1140.413874 820.410187 1243.103258 820.410187 1357.089928 567.245633 1252.521927 0 1486.819037 0 1803.225806 567.245633 1573.139024 1134.491266 1803.225806 1134.491266 1799.248801 1143.806822 1803.225806 1143.806822 638.224344"/></svg>